{
    "accessors" : [
        {
            "bufferView" : 0, 
            "componentType" : 5123, 
            "count" : 56091, 
            "max" : [
                45424
            ], 
            "min" : [
                0
            ], 
            "type" : "SCALAR"
        }, 
        {
            "bufferView" : 1, 
            "componentType" : 5126, 
            "count" : 45425, 
            "max" : [
                3.6865346431732178, 
                56.150360107421875, 
                10.37846565246582
            ], 
            "min" : [
                -11.313465118408203, 
                -3.8496389389038086, 
                -4.6215338706970215
            ], 
            "type" : "VEC3"
        }, 
        {
            "bufferView" : 2, 
            "componentType" : 5126, 
            "count" : 45425, 
            "max" : [
                1.0, 
                1.0, 
                1.0
            ], 
            "min" : [
                -1.0, 
                -1.0, 
                -1.0
            ], 
            "type" : "VEC3"
        }, 
        {
            "bufferView" : 3, 
            "componentType" : 5126, 
            "count" : 45425, 
            "max" : [
                1.0, 
                1.0, 
                1.0, 
                1.0
            ], 
            "min" : [
                1.0, 
                1.0, 
                1.0, 
                1.0
            ], 
            "type" : "VEC4"
        }, 
        {
            "bufferView" : 4, 
            "componentType" : 5126, 
            "count" : 1, 
            "max" : [
                0.041666666666666664
            ], 
            "min" : [
                0.041666666666666664
            ], 
            "type" : "SCALAR"
        }, 
        {
            "bufferView" : 5, 
            "componentType" : 5126, 
            "count" : 1, 
            "max" : [
                0.0, 
                0.0, 
                -0.0, 
                1.0
            ], 
            "min" : [
                0.0, 
                0.0, 
                -0.0, 
                1.0
            ], 
            "type" : "VEC4"
        }
    ], 
    "animations" : [
        {
            "channels" : [
                {
                    "sampler" : 0, 
                    "target" : {
                        "node" : 2, 
                        "path" : "rotation"
                    }
                }
            ], 
            "samplers" : [
                {
                    "input" : 4, 
                    "interpolation" : "LINEAR", 
                    "output" : 5
                }
            ]
        }
    ], 
    "asset" : {
        "generator" : "Khronos Blender glTF 2.0 exporter", 
        "version" : "2.0"
    }, 
    "bufferViews" : [
        {
            "buffer" : 0, 
            "byteLength" : 112182, 
            "byteOffset" : 0, 
            "target" : 34963
        }, 
        {
            "buffer" : 0, 
            "byteLength" : 545100, 
            "byteOffset" : 112184, 
            "target" : 34962
        }, 
        {
            "buffer" : 0, 
            "byteLength" : 545100, 
            "byteOffset" : 657284, 
            "target" : 34962
        }, 
        {
            "buffer" : 0, 
            "byteLength" : 726800, 
            "byteOffset" : 1202384, 
            "target" : 34962
        }, 
        {
            "buffer" : 0, 
            "byteLength" : 4, 
            "byteOffset" : 1929184
        }, 
        {
            "buffer" : 0, 
            "byteLength" : 16, 
            "byteOffset" : 1929188
        }
    ], 
    "buffers" : [
        {
            "byteLength" : 1929204, 
            "uri" : "1.bin"
        }
    ], 
    "cameras" : [
        {
            "name" : "Camera", 
            "perspective" : {
                "aspectRatio" : 1.7777777777777777, 
                "yfov" : 0.5033799372418416, 
                "zfar" : 100.0, 
                "znear" : 0.10000000149011612
            }, 
            "type" : "perspective"
        }
    ], 
    "meshes" : [
        {
            "name" : "Copy of #TAT-Pillar Idea", 
            "primitives" : [
                {
                    "attributes" : {
                        "COLOR_0" : 3, 
                        "NORMAL" : 2, 
                        "POSITION" : 1
                    }, 
                    "indices" : 0
                }
            ]
        }
    ], 
    "nodes" : [
        {
            "camera" : 0, 
            "name" : "Correction_Camera", 
            "rotation" : [
                -0.7071067690849304, 
                -0.0, 
                0.0, 
                0.7071067690849304
            ]
        }, 
        {
            "children" : [
                0
            ], 
            "name" : "Camera", 
            "rotation" : [
                0.483536034822464, 
                0.33687159419059753, 
                -0.20870360732078552, 
                0.7804827094078064
            ], 
            "scale" : [
                10.0, 
                10.0, 
                10.0
            ], 
            "translation" : [
                74.81131744384766, 
                53.43665313720703, 
                65.07640075683594
            ]
        }, 
        {
            "children" : [
                1, 
                3, 
                4
            ], 
            "mesh" : 0, 
            "name" : "Copy of #TAT-Pillar Idea", 
            "scale" : [
                0.10000000149011612, 
                0.10000000149011612, 
                0.10000000149011612
            ]
        }, 
        {
            "name" : "Empty", 
            "scale" : [
                10.0, 
                10.0, 
                10.0
            ]
        }, 
        {
            "name" : "Lamp", 
            "rotation" : [
                0.16907581686973572, 
                0.7558803558349609, 
                -0.27217134833335876, 
                0.570947527885437
            ], 
            "scale" : [
                10.0, 
                10.0, 
                9.999999046325684
            ], 
            "translation" : [
                40.762451171875, 
                59.03861999511719, 
                -10.054539680480957
            ]
        }
    ], 
    "scene" : 0, 
    "scenes" : [
        {
            "name" : "Scene", 
            "nodes" : [
                2
            ]
        }
    ]
}
